<svg xmlns="http://www.w3.org/2000/svg" viewBox="0 0 118 94" width="118" height="94">
  <g fill="none" fill-rule="evenodd">
    <path fill="#563D7C" d="M106.65 0H11.35C5.08 0 0 5.08 0 11.35v71.3C0 88.92 5.08 94 11.35 94h95.3C112.92 94 118 88.92 118 82.65V11.35C118 5.08 112.92 0 106.65 0z"/>
    <path fill="#FFF" d="M85.36 47.86c0-8.23-5.83-13.34-15.53-13.34H53.38v26.87h16.08c9.75 0 15.9-5.3 15.9-13.53zm-8.46.22c0 3.86-2.57 6.05-7.27 6.05H60.3V41.74h9.35c4.7 0 7.26 2.16 7.26 5.94zM77.1 61.54c0 4.25-3 6.52-7.93 6.52H60.3v-13.3h8.7c4.82 0 8.1 2.13 8.1 6.26zm8.47.3c0-8.2-6.02-11.96-15.45-11.96H53.38v24.03h15.93c9.8 0 16.26-5.13 16.26-12.07z"/>
  </g>
</svg>
